<svg width="24" height="24" viewBox="0 0 24 24" fill="none" xmlns="http://www.w3.org/2000/svg">
<path d="M7.38439 0.923096H3.69208C2.16268 0.923096 0.922852 2.16292 0.922852 3.69233V7.38463C0.922852 8.91404 2.16268 10.1539 3.69208 10.1539H7.38439C8.91379 10.1539 10.1536 8.91404 10.1536 7.38463V3.69233C10.1536 2.16292 8.91379 0.923096 7.38439 0.923096Z" stroke="white"/>
<path d="M20.3077 0.923096H16.6154C15.086 0.923096 13.8462 2.16292 13.8462 3.69233V7.38463C13.8462 8.91404 15.086 10.1539 16.6154 10.1539H20.3077C21.8371 10.1539 23.077 8.91404 23.077 7.38463V3.69233C23.077 2.16292 21.8371 0.923096 20.3077 0.923096Z" stroke="white"/>
<path d="M7.38439 13.8462H3.69208C2.16268 13.8462 0.922852 15.086 0.922852 16.6154V20.3077C0.922852 21.8371 2.16268 23.077 3.69208 23.077H7.38439C8.91379 23.077 10.1536 21.8371 10.1536 20.3077V16.6154C10.1536 15.086 8.91379 13.8462 7.38439 13.8462Z" stroke="white"/>
<path d="M20.3 14H16.7C15.2088 14 14 15.2088 14 16.7V20.3C14 21.7912 15.2088 23 16.7 23H20.3C21.7912 23 23 21.7912 23 20.3V16.7C23 15.2088 21.7912 14 20.3 14Z" fill="#2D89EF"/>
</svg>
