<svg width="24" height="24" viewBox="0 0 24 24" fill="none" xmlns="http://www.w3.org/2000/svg">
<g clip-path="url(#clip0_285_43)">
<path d="M12 3C16.225 3 18.6217 5.74928 18.9703 9.0695H19.0769C21.7959 9.0695 24 11.2308 24 13.8968C24 16.5629 21.7959 18.7241 19.0769 18.7241L15.1929 18.7235L16.8497 17.0882L19.2025 17.0887C20.932 17.0887 22.334 15.7032 22.334 13.9942C22.334 12.2851 20.932 10.8996 19.2025 10.8996L18.2554 10.8996C17.7545 10.8997 17.317 10.5115 17.317 10.0169C17.317 6.8553 14.8409 4.63543 12 4.63543C9.15912 4.63543 6.68298 6.89534 6.68298 10.0169C6.68298 10.5115 6.24553 10.8997 5.74463 10.8996L4.79752 10.8996C3.06803 10.8996 1.66601 12.2851 1.66601 13.9942C1.66601 15.6754 3.02276 17.0435 4.71332 17.0876C4.59833 17.6355 4.6952 18.2248 5.02258 18.7249L4.92308 18.7241C2.20414 18.7241 0 16.5629 0 13.8968C0 11.2308 2.20414 9.0695 4.92311 9.0695H5.02971C5.38031 5.72746 7.77503 3 12 3Z" fill="white"/>
<path d="M16.0549 13.213C16.3425 12.929 16.8089 12.929 17.0965 13.213C17.365 13.4781 17.3829 13.8969 17.1502 14.1825L17.0965 14.2415L10.4676 20.787C10.1693 21.0815 9.68738 21.0663 9.40751 20.7683L9.35749 20.7091L7.14784 17.8C6.90377 17.4787 6.96972 17.0228 7.29515 16.7818C7.60024 16.5559 8.02507 16.599 8.2781 16.87L8.32632 16.9273L10.0264 19.1655L16.0549 13.213Z" fill="#2D89EF"/>
</g>
<defs>
<clipPath id="clip0_285_43">
<rect width="24" height="18" fill="white" transform="translate(0 3)"/>
</clipPath>
</defs>
</svg>
