<svg width="24" height="24" viewBox="0 0 24 24" fill="none" xmlns="http://www.w3.org/2000/svg">
<path fill-rule="evenodd" clip-rule="evenodd" d="M4.97826 9.27273H5.95652V6.40903C5.95652 3.42645 8.44333 1 11.5 1C14.5567 1 17.0434 3.42645 17.0434 6.40903V9.27273H18.0217C18.562 9.27273 19 9.70011 19 10.2273V20.0455C19 20.5726 17.562 22 17.0217 22H5.97826C5.438 22 4 20.5726 4 20.0455V10.2273C4 9.70011 4.438 9.27273 4.97826 9.27273ZM15.0869 6.40903C15.0869 4.47919 13.4778 2.90909 11.5 2.90909C9.52215 2.90909 7.91304 4.47919 7.91304 6.40903V9.27273H15.0869V6.40903ZM17.0435 11.1818V20.0909H5.95652V11.1818H6.93478H16.0652H17.0435Z" fill="white"/>
<path d="M11.5 17C12.3284 17 13 16.3284 13 15.5C13 14.6716 12.3284 14 11.5 14C10.6716 14 10 14.6716 10 15.5C10 16.3284 10.6716 17 11.5 17Z" fill="#2C86E9"/>
</svg>
