<svg width="24" height="24" viewBox="0 0 24 24" fill="none" xmlns="http://www.w3.org/2000/svg">
<g clip-path="url(#clip0_285_62)">
<path d="M22.9149 11.8988H16.3765C16.1376 11.8988 15.9215 12.041 15.8272 12.2606L13.9819 16.5489L11.2077 4.92791C11.1503 4.6887 10.9528 4.50886 10.7088 4.47466C10.4657 4.43751 10.2252 4.55874 10.1046 4.77367L6.09509 11.8988H1.4276C1.09736 11.8988 0.82959 12.1666 0.82959 12.4968C0.82959 12.827 1.09736 13.0948 1.4276 13.0948H6.44472C6.66083 13.0948 6.85993 12.9783 6.96606 12.7898L10.3989 6.69028L13.2371 18.5803C13.2969 18.8309 13.5107 19.0152 13.7675 19.037C13.7846 19.0388 13.8019 19.0394 13.8191 19.0394C14.0562 19.0394 14.2733 18.8987 14.3681 18.6776L16.7704 13.095H22.915C23.2452 13.095 23.513 12.8272 23.513 12.497C23.5129 12.1666 23.2451 11.8988 22.9149 11.8988Z" fill="#2D89EF"/>
</g>
<defs>
<clipPath id="clip0_285_62">
<rect width="24" height="15.4286" fill="white" transform="translate(0 4)"/>
</clipPath>
</defs>
</svg>
