<svg width="24" height="24" viewBox="0 0 24 24" fill="none" xmlns="http://www.w3.org/2000/svg">
<path d="M11.5871 11.6552C14.8648 11.6552 17.5219 9.04607 17.5219 5.82759C17.5219 2.6091 14.8648 0 11.5871 0C8.30944 0 5.65234 2.6091 5.65234 5.82759C5.65234 9.04607 8.30944 11.6552 11.5871 11.6552Z" fill="#2D89EF"/>
<path d="M2.9043 15.6617H5.48293C6.06785 15.6617 6.56182 15.7492 6.96484 15.9243C7.37143 16.0994 7.67994 16.3586 7.89037 16.7018C8.10437 17.0415 8.21136 17.46 8.21136 17.9573C8.21136 18.3075 8.13825 18.628 7.99202 18.9187C7.84936 19.2059 7.6425 19.451 7.37143 19.6542C7.10394 19.8537 6.78295 20.0026 6.40845 20.1006L6.11957 20.211H3.69608L3.68537 19.3862H5.51503C5.88596 19.3862 6.19446 19.3231 6.44056 19.1971C6.68665 19.0675 6.87212 18.8941 6.99695 18.677C7.12178 18.4599 7.18418 18.22 7.18418 17.9573C7.18418 17.6632 7.12534 17.4058 7.00765 17.1851C6.88995 16.9645 6.70448 16.7946 6.45126 16.6755C6.20159 16.553 5.87882 16.4917 5.48293 16.4917H3.93682V23.3104H2.9043V15.6617ZM7.45703 23.3104L5.56318 19.8432L6.6385 19.838L8.5591 23.2474V23.3104H7.45703ZM14.6045 22.4856V23.3104H10.4797V22.4856H14.6045ZM10.6883 15.6617V23.3104H9.65583V15.6617H10.6883ZM14.0587 18.9502V19.7749H10.4797V18.9502H14.0587ZM14.551 15.6617V16.4917H10.4797V15.6617H14.551ZM20.5856 20.8781H21.6128C21.5593 21.3615 21.4184 21.794 21.1902 22.1757C20.9619 22.5575 20.6391 22.8603 20.2218 23.0844C19.8045 23.3051 19.2838 23.4155 18.6597 23.4155C18.2031 23.4155 17.7876 23.3314 17.4132 23.1633C17.0422 22.9952 16.723 22.757 16.4555 22.4489C16.188 22.1372 15.9811 21.7642 15.8349 21.3299C15.6923 20.8921 15.621 20.4054 15.621 19.8695V19.1078C15.621 18.5719 15.6923 18.0869 15.8349 17.6527C15.9811 17.2149 16.1898 16.8401 16.4609 16.5284C16.7355 16.2168 17.0654 15.9769 17.4506 15.8087C17.8358 15.6406 18.2691 15.5566 18.7506 15.5566C19.339 15.5566 19.8367 15.6652 20.2432 15.8823C20.6498 16.0994 20.9655 16.4007 21.1902 16.7859C21.4184 17.1676 21.5593 17.6106 21.6128 18.1149H20.5856C20.5357 17.7577 20.4429 17.4512 20.3074 17.1956C20.1718 16.9364 19.9793 16.7369 19.7296 16.5967C19.4799 16.4567 19.1536 16.3866 18.7506 16.3866C18.4046 16.3866 18.0997 16.4514 17.8358 16.581C17.5754 16.7106 17.3561 16.8945 17.1777 17.1326C17.0029 17.3707 16.871 17.6562 16.7819 17.9889C16.6927 18.3215 16.6481 18.6911 16.6481 19.0973V19.8695C16.6481 20.2443 16.6873 20.5962 16.7658 20.9254C16.8478 21.2546 16.9709 21.5435 17.135 21.7922C17.299 22.0409 17.5077 22.2369 17.7609 22.3806C18.0141 22.5206 18.3137 22.5907 18.6597 22.5907C19.0984 22.5907 19.4479 22.5224 19.7082 22.3859C19.9686 22.2492 20.1647 22.0531 20.2967 21.7974C20.4322 21.5418 20.5286 21.2353 20.5856 20.8781Z" fill="white"/>
</svg>
