<svg width="24" height="24" viewBox="0 0 24 24" fill="none" xmlns="http://www.w3.org/2000/svg">
<g clip-path="url(#clip0_285_64)">
<path fill-rule="evenodd" clip-rule="evenodd" d="M18.0552 15.1571L18.6347 14.5775L18.0552 13.9979L16.3174 15.7359L13.4191 12.8379L10.8128 10.229L5.88689 5.30322L6.4664 4.72362L3.28061 1.53662L1.54053 3.27464L4.72786 6.46241L5.30661 5.88281L10.2325 10.8086L12.8396 13.4168L15.7379 16.314L13.9986 18.0535L14.5781 18.6331L15.1576 18.0535L19.5032 22.3997C19.8898 22.7871 20.4055 23.0001 20.952 23.0001C21.4985 23.0001 22.0134 22.7871 22.4008 22.3997C23.1993 21.6011 23.1993 20.3012 22.4008 19.5025L18.0552 15.1571ZM2.70033 3.27541L3.27984 2.69658L5.30738 4.72439L4.72786 5.30399L2.69956 3.27541H2.70033ZM20.9535 22.1822C21.2817 22.1822 21.5907 22.0538 21.8228 21.8217H21.8243C22.3032 21.3428 22.3032 20.5633 21.8236 20.0837L17.4772 15.7367L15.7387 17.4755L20.0843 21.8217C20.3164 22.0538 20.6253 22.1822 20.9535 22.1822Z" fill="white"/>
<path d="M7.76886 20.807C7.11249 21.4635 6.24014 21.8247 5.31092 21.8247C5.04422 21.8247 4.78136 21.7948 4.52619 21.7356L5.7321 20.5295L5.76823 17.8506L3.15964 17.886L1.91531 19.1305C1.64169 17.9698 1.97756 16.7452 2.84376 15.8797C3.50013 15.2232 4.37324 14.8612 5.30246 14.8612C5.7836 14.8612 6.25013 14.9572 6.69053 15.1479L6.94647 15.2586L15.2618 6.94208L15.1511 6.6861C14.5793 5.36472 14.8667 3.85578 15.8828 2.83956C16.5392 2.1831 17.4123 1.82104 18.3407 1.82104C18.6097 1.82104 18.8749 1.85179 19.1324 1.91098L17.8888 3.15473L17.8527 5.76367L20.5312 5.72754L21.7379 4.5207C22.0084 5.67912 21.6718 6.90134 20.8087 7.76535C20.1515 8.42181 19.2784 8.78387 18.3492 8.78387C17.8696 8.78387 17.4038 8.68778 16.965 8.49868L16.7098 8.38876L8.39295 16.7083L8.50286 16.9635C9.07085 18.2834 8.78263 19.7923 7.76886 20.807Z" fill="#2D89EF" stroke="#3089EB"/>
</g>
<defs>
<clipPath id="clip0_285_64">
<rect width="22" height="22" fill="white" transform="translate(1 1)"/>
</clipPath>
</defs>
</svg>
