<svg width="24" height="30" viewBox="0 0 24 30" fill="none" xmlns="http://www.w3.org/2000/svg">
<g clip-path="url(#clip0_530_613)">
<path d="M23.2364 10.0511C23.0654 10.1838 20.0462 11.885 20.0462 15.6678C20.0462 20.0432 23.888 21.5912 24.0029 21.6295C23.9853 21.7238 23.3926 23.7494 21.9774 25.8133C20.7155 27.6295 19.3975 29.4427 17.3926 29.4427C15.3877 29.4427 14.8717 28.2781 12.5572 28.2781C10.3017 28.2781 9.49975 29.4811 7.66585 29.4811C5.83194 29.4811 4.55233 27.8005 3.08108 25.7366C1.3769 23.313 0 19.5479 0 15.9744C0 10.2428 3.72678 7.20295 7.39459 7.20295C9.34349 7.20295 10.9681 8.48256 12.1916 8.48256C13.3563 8.48256 15.1725 7.12629 17.3897 7.12629C18.23 7.12629 21.2491 7.20295 23.2364 10.0511ZM16.3371 4.69975C17.2541 3.61179 17.9027 2.10221 17.9027 0.592629C17.9027 0.383292 17.885 0.171007 17.8467 0C16.3548 0.0560197 14.5799 0.993612 13.5096 2.23489C12.6693 3.19017 11.885 4.69975 11.885 6.22998C11.885 6.45995 11.9233 6.68993 11.941 6.76364C12.0354 6.78133 12.1887 6.80197 12.342 6.80197C13.6806 6.80197 15.3641 5.90565 16.3371 4.69975Z" fill="white"/>
</g>
<defs>
<clipPath id="clip0_530_613">
<rect width="24" height="29.484" fill="white"/>
</clipPath>
</defs>
</svg>
