<svg width="23" height="37" viewBox="0 0 23 37" fill="none" xmlns="http://www.w3.org/2000/svg">
<path fill-rule="evenodd" clip-rule="evenodd" d="M22.3276 0H7.01724C6.6651 0 6.37931 0.285793 6.37931 0.637931V20.4138H0.637931C0.285793 20.4138 0 20.6996 0 21.0517V36.3621C0 36.7142 0.285793 37 0.637931 37H7.01724H22.3276C22.6797 37 22.9655 36.7142 22.9655 36.3621V0.637931C22.9655 0.285793 22.6797 0 22.3276 0ZM1.27586 21.6897H6.37931V35.7241H1.27586V21.6897ZM7.65517 35.7241H21.6897V1.27586H7.65517V21.0517V35.7241Z" fill="white"/>
<path d="M9.61309 32.6462C10.9559 31.7511 12.7523 31.2587 14.6725 31.2587C16.5927 31.2587 18.3891 31.7511 19.732 32.6462C19.8404 32.7189 19.9635 32.7533 20.0854 32.7533C20.2914 32.7533 20.4936 32.6538 20.6168 32.4694C20.812 32.1766 20.7329 31.7798 20.4401 31.5846C18.8899 30.5518 16.8415 29.9828 14.6725 29.9828C12.5036 29.9828 10.4552 30.5518 8.90562 31.5846C8.61281 31.7798 8.53371 32.176 8.72892 32.4694C8.92349 32.7623 9.31964 32.8414 9.61309 32.6462Z" fill="white"/>
<path d="M9.61309 26.2668C10.9559 25.3718 12.7523 24.8793 14.6725 24.8793C16.5927 24.8793 18.3891 25.3718 19.732 26.2668C19.8404 26.3395 19.9635 26.374 20.0854 26.374C20.2914 26.374 20.4936 26.2745 20.6168 26.0901C20.812 25.7973 20.7329 25.4005 20.4401 25.2053C18.8899 24.1725 16.8415 23.6035 14.6725 23.6035C12.5036 23.6035 10.4552 24.1725 8.90562 25.2053C8.61281 25.4005 8.53371 25.7967 8.72892 26.0901C8.92349 26.3829 9.31964 26.4627 9.61309 26.2668Z" fill="white"/>
<path d="M9.61309 19.8875C10.9559 18.9925 12.7523 18.5 14.6725 18.5C16.5927 18.5 18.3891 18.9925 19.732 19.8875C19.8404 19.9602 19.9635 19.9947 20.0854 19.9947C20.2914 19.9947 20.4936 19.8951 20.6168 19.7108C20.812 19.418 20.7329 19.0212 20.4401 18.826C18.8899 17.7932 16.8415 17.2241 14.6725 17.2241C12.5036 17.2241 10.4552 17.7932 8.90562 18.826C8.61281 19.0212 8.53371 19.4173 8.72892 19.7108C8.92349 20.0036 9.31964 20.0827 9.61309 19.8875Z" fill="white"/>
<path d="M9.61309 13.5082C10.9559 12.6132 12.7523 12.1207 14.6725 12.1207C16.5927 12.1207 18.3891 12.6132 19.732 13.5082C19.8404 13.5809 19.9635 13.6154 20.0854 13.6154C20.2914 13.6154 20.4936 13.5159 20.6168 13.3315C20.812 13.0387 20.7329 12.6419 20.4401 12.4467C18.8899 11.4139 16.8415 10.8448 14.6725 10.8448C12.5036 10.8448 10.4552 11.4139 8.90562 12.4467C8.61281 12.6419 8.53371 13.0381 8.72892 13.3315C8.92349 13.6243 9.31964 13.7034 9.61309 13.5082Z" fill="white"/>
<path d="M9.61309 7.12888C10.9559 6.2345 12.7523 5.74138 14.6725 5.74138C16.5927 5.74138 18.3891 6.2345 19.732 7.12888C19.8404 7.2016 19.9635 7.23605 20.0854 7.23605C20.2914 7.23605 20.4936 7.13653 20.6168 6.95217C20.812 6.65872 20.7329 6.26257 20.4401 6.06736C18.8899 5.03455 16.8415 4.46552 14.6725 4.46552C12.5036 4.46552 10.4552 5.03455 8.90562 6.06736C8.61281 6.26257 8.53371 6.65872 8.72892 6.95217C8.92349 7.24434 9.31964 7.32472 9.61309 7.12888Z" fill="white"/>
<path d="M9.61309 29.4565C10.9559 28.5614 12.7523 28.069 14.6725 28.069C16.5927 28.069 18.3891 28.5614 19.732 29.4565C19.8404 29.5292 19.9635 29.5636 20.0854 29.5636C20.2914 29.5636 20.4936 29.4641 20.6168 29.2797C20.812 28.9869 20.7329 28.5901 20.4401 28.3949C18.8899 27.3621 16.8415 26.7931 14.6725 26.7931C12.5036 26.7931 10.4552 27.3621 8.90562 28.3949C8.61281 28.5901 8.53371 28.9863 8.72892 29.2797C8.92349 29.5726 9.31964 29.6517 9.61309 29.4565Z" fill="white"/>
<path d="M9.61309 23.0772C10.9559 22.1822 12.7523 21.6897 14.6725 21.6897C16.5927 21.6897 18.3891 22.1822 19.732 23.0772C19.8404 23.1499 19.9635 23.1844 20.0854 23.1844C20.2914 23.1844 20.4936 23.0848 20.6168 22.9005C20.812 22.6077 20.7329 22.2109 20.4401 22.0157C18.8899 20.9829 16.8415 20.4138 14.6725 20.4138C12.5036 20.4138 10.4552 20.9829 8.90562 22.0157C8.61281 22.2109 8.53371 22.607 8.72892 22.9005C8.92349 23.1933 9.31964 23.273 9.61309 23.0772Z" fill="white"/>
<path d="M9.61309 16.6978C10.9559 15.8028 12.7523 15.3103 14.6725 15.3103C16.5927 15.3103 18.3891 15.8028 19.732 16.6978C19.8404 16.7706 19.9635 16.805 20.0854 16.805C20.2914 16.805 20.4936 16.7055 20.6168 16.5211C20.812 16.2283 20.7329 15.8315 20.4401 15.6363C18.8899 14.6035 16.8415 14.0345 14.6725 14.0345C12.5036 14.0345 10.4552 14.6035 8.90562 15.6363C8.61281 15.8315 8.53371 16.2277 8.72892 16.5211C8.92349 16.814 9.31964 16.8931 9.61309 16.6978Z" fill="white"/>
<path d="M9.61309 10.3185C10.9559 9.42413 12.7523 8.93101 14.6725 8.93101C16.5927 8.93101 18.3891 9.42413 19.732 10.3185C19.8404 10.3912 19.9635 10.4257 20.0854 10.4257C20.2914 10.4257 20.4936 10.3262 20.6168 10.1418C20.812 9.84836 20.7329 9.4522 20.4401 9.257C18.8899 8.22419 16.8415 7.65515 14.6725 7.65515C12.5036 7.65515 10.4552 8.22419 8.90562 9.257C8.61281 9.4522 8.53371 9.84836 8.72892 10.1418C8.92349 10.434 9.31964 10.5144 9.61309 10.3185Z" fill="white"/>
</svg>
