<svg width="18" height="19" viewBox="0 0 18 19" fill="none" xmlns="http://www.w3.org/2000/svg">
<path fill-rule="evenodd" clip-rule="evenodd" d="M7 1.0579C7 1.33404 7.22386 1.5579 7.5 1.5579H15.5C16.3284 1.5579 17 2.22947 17 3.0579V16.0579C17 16.8863 16.3284 17.5579 15.5 17.5579H7.5C7.22386 17.5579 7 17.7818 7 18.0579C7 18.334 7.22386 18.5579 7.5 18.5579H15.5C16.8807 18.5579 18 17.4386 18 16.0579V3.0579C18 1.67719 16.8807 0.557899 15.5 0.557899H7.5C7.22386 0.557899 7 0.781757 7 1.0579ZM0.5 9.5579H11.2929L8.14645 12.7043C7.95118 12.8996 7.95118 13.2162 8.14645 13.4115C8.34171 13.6067 8.65829 13.6067 8.85355 13.4115L12.8536 9.41145C13.0488 9.21619 13.0488 8.89961 12.8536 8.70435L8.85355 4.70435C8.65829 4.50908 8.34171 4.50908 8.14645 4.70435C7.95118 4.89961 7.95118 5.21619 8.14645 5.41145L11.2929 8.5579H0.5C0.223858 8.5579 0 8.78176 0 9.0579C0 9.33404 0.223858 9.5579 0.5 9.5579Z" fill="#AEA490"/>
</svg>
