<svg width="29" height="37" viewBox="0 0 29 37" fill="none" xmlns="http://www.w3.org/2000/svg">
<path fill-rule="evenodd" clip-rule="evenodd" d="M26.3726 11.8077C26.3726 11.5487 26.2459 11.3062 26.0317 11.1598L14.6169 3.28747C14.3477 3.10169 13.9926 3.10169 13.7234 3.28747L2.30859 11.1598C2.09525 11.307 1.9685 11.5487 1.9685 11.8077V35.4245H0.394043V36.999H2.75573H7.47911H12.2025H25.5854H27.9471V35.4245H26.3726V11.8077ZM8.26634 35.4245V28.3395H11.4153V35.4245H8.26634ZM12.9897 27.5522V35.4245V35.4253H24.7982V12.2217L14.1706 4.89185L3.54296 12.2217V35.4245H6.69188V27.5522C6.69188 27.1169 7.04377 26.765 7.47911 26.765H12.2025C12.6378 26.765 12.9897 27.1169 12.9897 27.5522Z" fill="white"/>
<path d="M27.9943 9.18776L14.6114 0.134616C14.3437 -0.0448721 13.9965 -0.0448721 13.7289 0.134616L0.345981 9.18776C-0.0137826 9.4318 -0.10825 9.92067 0.135004 10.2812C0.378258 10.6402 0.867127 10.7362 1.22847 10.4922L14.1705 1.73663L27.1118 10.4914C27.2472 10.5827 27.4007 10.6268 27.5526 10.6268C27.8053 10.6268 28.0533 10.5056 28.2052 10.2812C28.4485 9.92067 28.354 9.4318 27.9943 9.18776Z" fill="white"/>
<path fill-rule="evenodd" clip-rule="evenodd" d="M16.1385 26.765H21.6492C22.0837 26.765 22.4364 27.1177 22.4364 27.5522V31.4884C22.4364 31.9237 22.0845 32.2756 21.6492 32.2756H16.1385C15.7032 32.2756 15.3513 31.9237 15.3513 31.4884V27.5522C15.3513 27.1169 15.7032 26.765 16.1385 26.765ZM16.9258 30.7012H20.8619V28.3395H16.9258V30.7012Z" fill="white"/>
<path fill-rule="evenodd" clip-rule="evenodd" d="M16.1385 17.3182H21.6492C22.0837 17.3182 22.4364 17.6709 22.4364 18.1055V22.0416C22.4364 22.477 22.0845 22.8288 21.6492 22.8288H16.1385C15.7032 22.8288 15.3513 22.477 15.3513 22.0416V18.1055C15.3513 17.6701 15.7032 17.3182 16.1385 17.3182ZM16.9258 21.2544H20.8619V18.8927H16.9258V21.2544Z" fill="white"/>
<path fill-rule="evenodd" clip-rule="evenodd" d="M6.69177 17.3182H12.2024C12.6369 17.3182 12.9896 17.6709 12.9896 18.1055V22.0416C12.9896 22.477 12.6377 22.8288 12.2024 22.8288H6.69177C6.25643 22.8288 5.90454 22.477 5.90454 22.0416V18.1055C5.90454 17.6701 6.25643 17.3182 6.69177 17.3182ZM7.479 21.2544H11.4151V18.8927H7.479V21.2544Z" fill="white"/>
</svg>
