<svg width="56" height="44" viewBox="0 0 56 44" fill="none" xmlns="http://www.w3.org/2000/svg">
<path fill-rule="evenodd" clip-rule="evenodd" d="M26.1124 40V16.5548C22.1174 16.095 19 12.57 19 8.30304C19 3.72472 22.5888 0 27 0C31.4112 0 35 3.72472 35 8.30304C35 12.57 31.8826 16.095 27.8876 16.5548V40H26.1124ZM33.2248 8.30304C33.2248 4.74063 30.4324 1.84242 27 1.84242C23.5676 1.84242 20.7752 4.74073 20.7752 8.30313C20.7752 11.8655 23.5676 14.7638 27 14.7638C30.4324 14.7638 33.2248 11.8654 33.2248 8.30304Z" fill="#2D89EF"/>
<path d="M39.0715 37.2178C37.5217 36.6726 35.3807 36.2515 32.8798 36.0001L32.6919 37.7943C34.8927 38.0155 36.7925 38.3723 38.1861 38.8262C39.7594 39.3386 40.0948 39.7774 40.1516 39.8732C40.0363 40.098 39.1954 40.7685 36.5448 41.3547C34.0898 41.8975 30.8775 42.1964 27.5001 42.1964C24.1226 42.1964 20.9104 41.8975 18.4552 41.3546C15.8046 40.7685 14.9638 40.0979 14.8484 39.8731C14.9052 39.7772 15.2407 39.3384 16.8139 38.8261C18.2076 38.3722 20.1073 38.0154 22.3081 37.7942L22.1202 36C19.6193 36.2514 17.4783 36.6725 15.9285 37.2177C13.9853 37.9013 13 38.7939 13 39.8708C13 41.2476 14.5311 42.2807 17.6808 43.0292C20.3148 43.6552 23.8019 44 27.5001 44C31.1983 44 34.6854 43.6552 37.3192 43.0293C40.4689 42.2807 42 41.2477 42 39.8709C42 38.794 41.0147 37.9013 39.0715 37.2178Z" fill="#2D89EF"/>
</svg>
