<svg width="57" height="44" viewBox="0 0 57 44" fill="none" xmlns="http://www.w3.org/2000/svg">
<path fill-rule="evenodd" clip-rule="evenodd" d="M55.3222 0H1.12441C0.503389 0 0 0.503499 0 1.12452V16.0919C0 16.4013 0.127556 16.6969 0.35235 16.9094L5.67806 21.9392C5.94001 34.1484 15.9523 44 28.2233 44C40.4942 44 50.5066 34.1483 50.7685 21.9391L56.0942 16.9093C56.3191 16.6968 56.4466 16.4011 56.4466 16.0918V1.12452C56.4466 0.503499 55.9432 0 55.3222 0ZM28.2233 41.7512C17.4056 41.7512 8.53677 33.247 7.95147 22.5729H48.4951C47.9098 33.247 39.041 41.7512 28.2233 41.7512ZM7.24324 20.3242H49.2033L52.6608 17.0587H54.4642C55.0852 17.0587 55.0852 14.8098 54.4642 14.8098H54.1976V2.24893H2.24882V14.8098H54.1976V15.6071L52.6608 17.0587H3.78567L7.24324 20.3242Z" fill="#2D89EF"/>
<path fill-rule="evenodd" clip-rule="evenodd" d="M21.7422 36.143C21.7422 33.8853 24.5285 32.1826 28.2234 32.1826C31.9183 32.1826 34.7046 33.8852 34.7046 36.143C34.7046 38.4008 31.9182 40.1034 28.2234 40.1034C24.5286 40.1034 21.7422 38.4008 21.7422 36.143ZM23.991 36.1431C23.991 36.8245 25.6791 37.8546 28.2233 37.8546C30.7676 37.8546 32.4557 36.8244 32.4557 36.143C32.4557 35.4617 30.7676 34.4315 28.2233 34.4315C25.6791 34.4315 23.991 35.4618 23.991 36.1431Z" fill="#2D89EF"/>
</svg>
