<svg width="56" height="44" viewBox="0 0 56 44" fill="none" xmlns="http://www.w3.org/2000/svg">
<path d="M27.5 3C36.126 3 41.0193 8.59474 41.731 15.3514L41.9487 15.3513C47.4999 15.3513 52 19.7495 52 25.1749C52 30.6003 47.4999 34.9984 41.9487 34.9984L34.0189 34.9971L37.4015 31.6692L42.2051 31.6703C45.7361 31.6703 48.5986 28.8509 48.5986 25.373C48.5986 21.895 45.7361 19.0756 42.2051 19.0756L40.2714 19.0757C39.2487 19.0757 38.3556 18.2859 38.3556 17.2794C38.3556 10.8455 33.3001 6.32808 27.5 6.32808C21.6999 6.32808 16.6444 10.927 16.6444 17.2794C16.6444 18.2859 15.7513 19.0757 14.7286 19.0757L12.7949 19.0756C9.2639 19.0756 6.40143 21.895 6.40143 25.373C6.40143 28.7943 9.17146 31.5784 12.623 31.6681C12.3882 32.783 12.586 33.9822 13.2544 35L13.0513 34.9984C7.50011 34.9984 3 30.6003 3 25.1749C3 19.7495 7.50011 15.3513 13.0513 15.3513L13.269 15.3514C13.9848 8.55033 18.874 3 27.5 3Z" fill="#2D89EF"/>
<path d="M36.4394 23.4527C37.0251 22.8491 37.9749 22.8491 38.5607 23.4527C39.1074 24.016 39.1438 24.9059 38.67 25.5128L38.5607 25.6383L25.0607 39.5473C24.4532 40.1732 23.4719 40.1408 22.9019 39.5075L22.8001 39.3818L18.3001 33.2C17.803 32.5172 17.9373 31.5485 18.6001 31.0363C19.2214 30.5562 20.0866 30.6479 20.6019 31.2238L20.7001 31.3454L24.1624 36.1017L36.4394 23.4527Z" fill="#2D89EF"/>
</svg>
