<svg width="56" height="44" viewBox="0 0 56 44" fill="none" xmlns="http://www.w3.org/2000/svg">
<path fill-rule="evenodd" clip-rule="evenodd" d="M48.8387 16.0208C49.3496 16.095 49.774 16.453 49.9335 16.9442C50.0932 17.4355 49.9601 17.9748 49.5905 18.335L39.7795 27.9033L42.0784 41.3129C42.1047 41.4186 42.1188 41.5291 42.1188 41.6429C42.1188 42.3923 41.5115 42.9999 40.7625 42.9999H40.7623H40.7585C40.5428 42.9999 40.326 42.9485 40.1276 42.8441L28.0003 36.4657L15.8729 42.8441C15.4159 43.0845 14.8622 43.0444 14.4446 42.7408C14.0271 42.4374 13.8181 41.9228 13.9052 41.4137L16.2212 27.9036L6.40964 18.3352C6.03984 17.9746 5.90692 17.4355 6.06642 16.9442C6.22592 16.4532 6.65033 16.0952 7.16137 16.0208L20.7207 14.0487L26.784 1.75645C27.0126 1.29328 27.484 1 28.0003 1C28.5164 1 28.9879 1.29328 29.2164 1.75645L35.2798 14.0487L48.8387 16.0208ZM36.9854 27.6594C36.9098 27.2192 37.0558 26.7699 37.3755 26.4582L45.7298 18.311L34.1847 16.6318C33.7431 16.5676 33.3611 16.2898 33.1637 15.8894L28.0009 5.42309L22.8381 15.8894C22.6406 16.29 22.2587 16.5676 21.8169 16.6318L10.2712 18.311L18.6255 26.4582C18.9452 26.7701 19.0912 27.2192 19.0156 27.6594L17.0434 39.1628L27.3696 33.7318C27.7645 33.5239 28.2365 33.5239 28.6316 33.7318L38.9576 39.1628L36.9854 27.6594Z" fill="#2D89EF"/>
</svg>
