<svg width="123" height="43" viewBox="0 0 123 43" fill="none" xmlns="http://www.w3.org/2000/svg">
<path fill-rule="evenodd" clip-rule="evenodd" d="M120.542 22.3879C119.656 22.3879 118.936 21.6429 118.936 20.6939C118.936 19.7639 119.656 19.0109 120.53 19.0109H120.542C121.429 19.0109 122.137 19.7639 122.137 20.7029C122.137 21.6429 121.429 22.3979 120.542 22.3879ZM120.542 18.7009H120.53C119.442 18.7009 118.555 19.5879 118.555 20.6939C118.555 21.8199 119.442 22.6979 120.53 22.6979C121.631 22.6979 122.5 21.8199 122.5 20.6939C122.501 19.5879 121.631 18.7009 120.542 18.7009Z" fill="white"/>
<path fill-rule="evenodd" clip-rule="evenodd" d="M120.379 20.4753H120.124V19.7213C120.184 19.7123 120.264 19.7023 120.379 19.7023C120.78 19.7023 120.921 19.8993 120.921 20.0943C120.921 20.3693 120.673 20.4753 120.379 20.4753ZM121.23 21.1603C121.187 20.8293 121.055 20.6523 120.86 20.6153V20.6003C121.099 20.5293 121.293 20.3493 121.293 20.0583C121.293 19.8433 121.221 19.6943 121.088 19.5973C120.956 19.4993 120.735 19.4293 120.396 19.4293C120.133 19.4293 119.954 19.4563 119.769 19.4823V21.7083H120.124V20.7493H120.371C120.654 20.7493 120.798 20.8563 120.851 21.1403C120.895 21.4303 120.947 21.6373 121 21.7083H121.372C121.338 21.6373 121.283 21.5053 121.23 21.1603Z" fill="white"/>
<path fill-rule="evenodd" clip-rule="evenodd" d="M40.8129 18.2857L44.7229 11.6967L46.1169 18.2767L40.8129 18.2857ZM78.2559 7.0207C74.4909 7.0207 71.4819 9.2967 70.9049 12.5317C70.3779 15.5617 72.5889 17.9667 75.9309 17.9667H81.4669C83.5829 17.9667 84.6809 18.8547 84.4169 20.3417C84.1999 21.5707 82.8949 22.4577 81.3299 22.4577H69.7869C70.1949 21.7767 70.4839 21.0187 70.6289 20.2107C71.2209 16.8457 69.2209 14.7017 65.5149 14.7017H59.4289C58.0689 14.7017 57.0749 13.6827 57.2869 12.5107C57.4079 11.8027 58.2809 10.4207 59.9239 10.4207H68.3199C71.2129 10.4207 71.7009 7.0207 71.7009 7.0207H59.0329C55.2699 7.0207 52.2599 9.2967 51.6919 12.5317C51.1549 15.5617 53.3689 17.9667 56.7109 17.9667H62.2479C64.3619 17.9667 65.4579 18.8547 65.1999 20.3417C64.9829 21.5707 63.6749 22.4577 62.1129 22.4577H51.6529L47.7369 7.0207H43.1389C43.1389 7.0207 41.4389 9.8837 40.3949 11.5797C37.9139 15.5677 40.7629 18.2387 40.8039 18.2857L36.5589 18.2937L33.6959 23.1927L31.1729 18.2767C34.2059 17.6527 36.3559 15.5617 36.8439 12.7677C37.4029 9.6097 35.4289 7.0207 32.4269 7.0207H3.37888C0.487878 7.0207 -0.00012207 10.4207 -0.00012207 10.4207H8.52088L5.79988 25.8507C5.79988 25.8507 10.0659 26.2607 10.9289 21.3547C11.5349 17.9087 12.8539 10.4207 12.8539 10.4207H28.2009C30.4159 10.4207 31.6339 11.3577 31.3629 12.8967C31.1029 14.3857 29.3439 15.6047 27.3869 15.6047H20.6589C17.5389 15.6047 16.6449 18.7507 16.6449 18.7507L15.3929 25.8507H19.7329L21.0089 18.6167H26.2059L29.7849 25.8507H36.7929L39.2449 21.5707H46.9749L47.7859 25.8507H83.0519C86.3719 25.8507 89.2809 23.4227 89.8449 20.2107C90.4409 16.8457 88.4439 14.7017 84.7309 14.7017H78.6499C77.2929 14.7017 76.2909 13.6827 76.5019 12.5107C76.6229 11.8027 77.1869 11.1477 78.0969 10.7287C78.4929 10.5217 78.8519 10.4207 79.1419 10.4207H93.9539L91.2359 25.8507C91.2359 25.8507 94.9909 26.2127 96.1689 22.1907C96.2139 21.9677 96.2589 21.7517 96.2969 21.5167L98.8499 7.0207H78.2559Z" fill="white"/>
<path fill-rule="evenodd" clip-rule="evenodd" d="M98.3787 20.6146L98.1437 21.9786H102.414L102.657 20.5826H98.8917L98.3787 20.6146ZM97.8027 23.9156H102.072L102.318 22.5226H98.0447L97.8027 23.9156ZM97.4587 25.8516H101.725L101.976 24.4566H97.7067L97.4587 25.8516ZM112.882 25.8516H117.838L118.079 24.4626H113.131L112.882 25.8516ZM116.615 22.5226H111.663L111.419 23.9156H116.372L116.615 22.5226ZM115.154 20.5826H110.199L109.953 21.9786H114.909L115.154 20.5826ZM98.4867 20.0426H102.749L103 18.6486H98.7257L98.4867 20.0426ZM113.684 18.6486H108.732L108.488 20.0426H113.436L113.684 18.6486ZM118.036 14.7746H100.746L100.499 16.1646H117.79L118.036 14.7746ZM113.213 14.2326H119.94L120.189 12.8386H113.46L113.213 14.2326ZM115.889 16.7126H99.0717L98.8227 18.1056H115.644L115.889 16.7126ZM113.8 10.8976L113.558 12.2936H120.282L120.528 10.8976H113.8ZM117.598 7.0216H100.778L100.531 8.4176H117.352L117.598 7.0216ZM119.064 8.9606H100.437L100.191 10.3566H118.82L119.064 8.9606Z" fill="white"/>
<path fill-rule="evenodd" clip-rule="evenodd" d="M95.319 0.565902L94.51 5.1559H98.699L98.741 4.9099C99.459 0.839902 96.416 0.556902 95.546 0.557902C95.403 0.557902 95.319 0.565902 95.319 0.565902Z" fill="white"/>
<path fill-rule="evenodd" clip-rule="evenodd" d="M26.9551 42.0839C23.3651 42.0839 20.4551 39.1739 20.4551 35.5839C20.4551 31.9939 23.3651 29.0829 26.9551 29.0829C29.4171 29.0829 31.5591 30.4519 32.6621 32.4699L30.2291 33.6569C29.5681 32.5369 28.3501 31.7849 26.9551 31.7849C24.8571 31.7849 23.1561 33.4859 23.1561 35.5839C23.1561 37.6819 24.8571 39.3819 26.9551 39.3819C28.4451 39.3819 29.7341 38.5249 30.3561 37.2759V37.2769L32.7701 38.4919C31.7021 40.6219 29.5001 42.0839 26.9551 42.0839Z" fill="white"/>
<path fill-rule="evenodd" clip-rule="evenodd" d="M59.9697 42.0839C56.3797 42.0839 53.4697 39.1739 53.4697 35.5839C53.4697 31.9939 56.3797 29.0829 59.9697 29.0829C63.5597 29.0829 66.4697 31.9939 66.4697 35.5839C66.4697 39.1739 63.5597 42.0839 59.9697 42.0839ZM59.9697 39.3819C57.8717 39.3819 56.1707 37.6819 56.1707 35.5839C56.1707 33.4859 57.8717 31.7849 59.9697 31.7849C62.0677 31.7849 63.7687 33.4859 63.7687 35.5839C63.7687 37.6819 62.0677 39.3819 59.9697 39.3819Z" fill="white"/>
<path fill-rule="evenodd" clip-rule="evenodd" d="M38.4014 29.2501H41.1624V39.3821H47.8374V41.7851H41.1624H38.4014V39.3821V29.2501Z" fill="white"/>
<path fill-rule="evenodd" clip-rule="evenodd" d="M80.2558 29.2501H83.0168V38.4081C83.0168 40.4881 81.1068 41.7081 79.1728 42.0231C76.4908 42.4601 74.8618 41.7251 74.8618 41.7251C72.2158 41.0141 72.1018 39.1031 72.1018 36.9831V29.2501H74.8628V37.9601C74.8628 39.2071 76.3618 39.9271 77.4648 39.9371C78.6338 39.9481 80.2558 39.1741 80.2558 37.8411V29.2501Z" fill="white"/>
<path fill-rule="evenodd" clip-rule="evenodd" d="M95.0127 31.9848H91.4097V39.0868H95.0127C96.5427 38.7728 97.0187 37.5328 97.0187 37.5328C97.0187 37.5328 97.7147 35.7248 97.1187 33.9568C96.5227 32.1888 95.0127 31.9848 95.0127 31.9848ZM88.6487 31.9848V29.2238H91.4097H93.4817C96.0627 29.0128 98.6847 30.0198 99.7007 32.5858C99.7007 32.5858 100.496 35.4468 99.7607 38.2488C98.7797 41.9888 94.3377 41.8478 91.4097 41.8478H88.6487V39.0868V31.9848Z" fill="white"/>
</svg>
