<?xml version="1.0" encoding="utf-8"?>
<!-- Generator: Adobe Illustrator 24.1.1, SVG Export Plug-In . SVG Version: 6.00 Build 0)  -->
<svg version="1.1" id="Слой_1" xmlns="http://www.w3.org/2000/svg" xmlns:xlink="http://www.w3.org/1999/xlink" x="0px" y="0px"
	 viewBox="0 0 425 126" style="enable-background:new 0 0 425 126;" xml:space="preserve">
<style type="text/css">
	.st0{fill-rule:evenodd;clip-rule:evenodd;fill:#00305D;}
	.st1{fill-rule:evenodd;clip-rule:evenodd;fill:#288731;}
	.st2{fill-rule:evenodd;clip-rule:evenodd;fill:#9DC430;}
</style>
<g>
	<path class="st0" d="M187.06,43.58c-6.82,0-13.79,5.5-15.55,12.31h72.28c1.78-6.81-2.32-12.31-9.14-12.31H187.06L187.06,43.58z
		 M174.72,91.07h47.61c6.81,0,13.77-5.5,15.53-12.31l1.37-5.28c1.78-6.81-2.32-12.31-9.15-12.31h-59.94
		c-1.76,6.81,2.32,12.31,9.14,12.31h47.61l-1.37,5.28h-59.95C163.81,85.56,167.89,91.07,174.72,91.07L174.72,91.07z M262.88,43.58
		c-6.82,0-13.77,5.5-15.55,12.31h72.28c1.78-6.81-2.32-12.31-9.13-12.31H262.88L262.88,43.58z M250.53,91.07h47.61
		c6.82,0,13.77-5.5,15.55-12.31l1.37-5.28c1.76-6.81-2.34-12.31-9.14-12.31h-59.95c-1.76,6.81,2.34,12.31,9.14,12.31h47.61
		l-1.37,5.28h-59.95C239.63,85.56,243.73,91.07,250.53,91.07L250.53,91.07z M326.36,91.07h47.59c6.82,0,13.77-5.5,15.55-12.31
		h-59.95l9.15-35.17c-6.82,0-13.77,5.5-15.55,12.31l-5.93,22.86C315.45,85.56,319.54,91.07,326.36,91.07L326.36,91.07z
		 M109.57,55.89h46.06l-5.95,22.86h-40.12L97.26,91.07h49.24c6.81,0,13.77-5.5,15.53-12.31l5.94-22.86
		c1.76-6.81-2.32-12.31-9.14-12.31H97.12L109.57,55.89L109.57,55.89z"/>
	<polygon class="st1" points="66.94,48.26 46.72,68.2 66.94,88.15 87.19,68.2 66.94,48.26 	"/>
	<polygon class="st1" points="94.54,67.32 81.52,80.14 90.49,80.14 90.49,89.43 112.93,67.32 90.49,45.22 90.49,54.5 81.54,54.5 
		94.54,67.32 	"/>
	<path class="st2" d="M76.32,85.26l-9.37,9.25L39.35,67.32l27.59-27.19l9.37,9.25h8.97l0.02-9.3L73.84,28.81
		c-3.8-3.75-9.97-3.75-13.79,0l-32.2,31.73c-3.8,3.75-3.8,9.83,0,13.58l32.2,31.72c3.82,3.75,9.99,3.75,13.79,0l11.47-11.29
		l-0.02-9.29H76.32L76.32,85.26z"/>
</g>
</svg>
