<svg width="143" height="36" viewBox="0 0 1062 234" fill="none" xmlns="http://www.w3.org/2000/svg">
<g clip-path="url(#clip0)">
<path d="M422.9 44.2992L442.7 29.6992H376.6V117.099H442.7V102.599H395.5V80.1992H435.7V65.5992H395.5V44.2992H422.9Z" fill="#21A038"/>
<path d="M326.7 63.7992H303.8V44.2992H340.4L360.1 29.6992H284.9V117.099H324.3C346.4 117.099 359.1 107.099 359.1 89.5992C359 72.9992 347.6 63.7992 326.7 63.7992ZM323.4 102.599H303.7V78.3992H323.4C335.4 78.3992 340.9 82.4992 340.9 90.4992C341 98.6992 335.1 102.599 323.4 102.599Z" fill="#21A038"/>
<path d="M496.2 29.6992H460.2V117.099H479.1V92.2992H496.2C519.2 92.2992 533.4 80.1992 533.4 60.8992C533.4 41.6992 519.2 29.6992 496.2 29.6992ZM495.8 77.7992H479.1V44.2992H495.8C507.9 44.2992 514.5 50.2992 514.5 61.0992C514.5 71.8992 507.9 77.7992 495.8 77.7992Z" fill="#21A038"/>
<path d="M252.5 98.2C247.5 100.9 241.9 102.3 236.2 102.3C219.2 102.3 206.9 90.2 206.9 73.4C206.9 56.7 219.2 44.5 236.2 44.5C242.3 44.4 248.4 46.3 253.4 49.9L266.9 39.9L266 39.1C258.1 32.2 247.5 28.5 235.5 28.5C222.4 28.5 210.5 32.9 202.1 40.9C193.6 49 188.9 60.3 188.9 72.8C188.9 85.4 193.6 96.9 202.1 105.2C210.6 113.5 222.5 118.1 235.5 118.1C249.1 118.1 261 113.4 269 104.7L256.8 95.7L252.5 98.2Z" fill="#21A038"/>
<path d="M130.2 28.9004C133.6 33.3004 136.6 38.2004 138.9 43.4004L72.4999 92.4004L44.7 75.0004V54.0004L72.4999 71.4004L130.2 28.9004Z" fill="#21A038"/>
<path d="M16.4999 73.3988C16.4999 72.4988 16.4999 71.4988 16.5999 70.5988L-0.200073 69.7988C-0.300073 70.9988 -0.300049 72.1988 -0.300049 73.3988C-0.300049 93.4988 7.89995 111.799 21.0999 124.999L32.9999 113.099C22.6999 102.899 16.4999 88.8988 16.4999 73.3988Z" fill="url(#paint0_linear)"/>
<path d="M72.4999 17.3996C73.3999 17.3996 74.3999 17.3996 75.2999 17.4996L76.0999 0.699615C74.8999 0.599615 73.6999 0.599609 72.4999 0.599609C52.3999 0.599609 34.0999 8.7996 20.8999 21.9996L32.7999 33.8996C42.9999 23.5996 57.0999 17.3996 72.4999 17.3996Z" fill="url(#paint1_linear)"/>
<path d="M72.4999 129.5C71.5999 129.5 70.5999 129.5 69.6999 129.4L68.8999 146.2C70.0999 146.3 71.2999 146.3 72.4999 146.3C92.5999 146.3 110.9 138.1 124.1 124.9L112.2 113C102 123.2 87.9999 129.5 72.4999 129.5Z" fill="url(#paint2_linear)"/>
<path d="M104.1 27.1004L118.3 16.6004C105.8 6.5004 89.9 0.400391 72.5 0.400391V17.2004C84.2 17.4004 95.1 21.0004 104.1 27.1004Z" fill="url(#paint3_linear)"/>
<path d="M145.4 73.4008C145.4 68.9008 145 64.6008 144.2 60.3008L128.5 71.9008C128.5 72.4008 128.5 72.9008 128.5 73.4008C128.5 89.9008 121.4 104.701 110 115.001L121.3 127.501C136.2 114.201 145.4 94.9008 145.4 73.4008Z" fill="#21A038"/>
<path d="M72.4999 129.5C55.9999 129.5 41.1999 122.4 30.8999 111L18.3999 122.3C31.6999 137 50.9999 146.3 72.4999 146.3V129.5Z" fill="url(#paint4_linear)"/>
<path d="M34.9001 31.9004L23.6001 19.4004C8.9001 32.7004 -0.399902 52.0004 -0.399902 73.5004H16.4001C16.5001 57.0004 23.6001 42.1004 34.9001 31.9004Z" fill="url(#paint5_linear)"/>
<path d="M268 167.7L240 214.1H232.1L203.4 168.3V233.3H187.8V146H207.5L236.4 193.5L265.1 146H283.6V233.3H268V167.7Z" fill="#632895"/>
<path d="M360.8 195.5H320.6V219H366.7V233.3H305V146H365.4V160.3H320.6V181.1H360.8V195.5Z" fill="#632895"/>
<path d="M443.4 160.3H399.7V233.3H384.1V146H443.3V160.3H443.4Z" fill="#632895"/>
<path d="M523.6 233.3H507L498.6 212.6H458.6L450.4 233.3H434.6L470 146H487.7L523.6 233.3ZM492.9 198.3L478.6 162.5L464.3 198.3H492.9Z" fill="#632895"/>
<path d="M614.9 167.7L586.8 214.1H578.9L550.2 168.3V233.3H534.6V146H554.3L583.2 193.5L612 146H630.5V233.3H614.9V167.7Z" fill="#632895"/>
<path d="M730.5 233.3H713.9L705.5 212.6H665.5L657.3 233.3H641.5L676.9 146H694.6L730.5 233.3ZM699.8 198.3L685.5 162.5L671.2 198.3H699.8Z" fill="#632895"/>
<path d="M757.2 206.1V233.3H741.6V146H770.7C784.5 146 794.5 148.5 800.7 153.4C806.9 158.3 810 165.7 810 175.5C810 185.7 806.7 193.4 800 198.4C793.3 203.5 783.6 206 770.7 206L757.2 206.1ZM757.2 160.3V191.7H771.8C779.1 191.7 784.6 190.4 788.3 187.9C792 185.4 793.8 181.1 793.8 175.1C793.8 169.7 792.1 165.9 788.7 163.6C785.3 161.4 779.8 160.2 772.1 160.2L757.2 160.3Z" fill="#632895"/>
<path d="M841.5 233.3H825.9V146H841.5V182.7H854.6L882.7 146H901.7L868.4 187.5L907.1 233.3H887.1L855.4 195.5H841.6L841.5 233.3Z" fill="#632895"/>
<path d="M973.9 195.5H933.7V219H979.8V233.3H918.1V146H978.5V160.3H933.7V181.1H973.9V195.5Z" fill="#632895"/>
<path d="M1062 160.3H1032.6V233.3H1017V160.3H988.1V146H1062.1L1062 160.3Z" fill="#632895"/>
</g>
<defs>
<linearGradient id="paint0_linear" x1="24.3806" y1="122.876" x2="5.97683" y2="69.6785" gradientUnits="userSpaceOnUse">
<stop offset="0.1444" stop-color="#F2E913"/>
<stop offset="0.3037" stop-color="#E7E518"/>
<stop offset="0.5823" stop-color="#CADB26"/>
<stop offset="0.891" stop-color="#A3CD39"/>
</linearGradient>
<linearGradient id="paint1_linear" x1="25.779" y1="24.8533" x2="73.1796" y2="6.78989" gradientUnits="userSpaceOnUse">
<stop offset="0.0592" stop-color="#0FA8E0"/>
<stop offset="0.5385" stop-color="#0099F9"/>
<stop offset="0.9234" stop-color="#0291EB"/>
</linearGradient>
<linearGradient id="paint2_linear" x1="67.7712" y1="136.179" x2="121.373" y2="124.064" gradientUnits="userSpaceOnUse">
<stop offset="0.1226" stop-color="#A3CD39"/>
<stop offset="0.2846" stop-color="#86C339"/>
<stop offset="0.8693" stop-color="#21A038"/>
</linearGradient>
<linearGradient id="paint3_linear" x1="69.0006" y1="6.16499" x2="114.829" y2="20.305" gradientUnits="userSpaceOnUse">
<stop offset="0.0566" stop-color="#0291EB"/>
<stop offset="0.79" stop-color="#0C8ACB"/>
</linearGradient>
<linearGradient id="paint4_linear" x1="22.6831" y1="120.298" x2="72.5678" y2="138.937" gradientUnits="userSpaceOnUse">
<stop offset="0.1324" stop-color="#F2E913"/>
<stop offset="0.2977" stop-color="#EBE716"/>
<stop offset="0.5306" stop-color="#D9E01F"/>
<stop offset="0.8023" stop-color="#BBD62D"/>
<stop offset="0.9829" stop-color="#A3CD39"/>
</linearGradient>
<linearGradient id="paint5_linear" x1="5.8888" y1="75.4728" x2="25.9128" y2="23.3829" gradientUnits="userSpaceOnUse">
<stop offset="0.0698" stop-color="#A3CD39"/>
<stop offset="0.2599" stop-color="#81C55F"/>
<stop offset="0.9216" stop-color="#0FA8E0"/>
</linearGradient>
<clipPath id="clip0">
<rect width="1062" height="234" fill="white"/>
</clipPath>
</defs>
</svg>
